<mxfile host="app.diagrams.net" modified="2021-01-06T17:06:50.243Z" agent="5.0 (Windows NT 10.0; Win64; x64) AppleWebKit/537.36 (KHTML, like Gecko) Chrome/87.0.4280.88 Safari/537.36" etag="nfRAQT1J58mGOyLTljpp" version="14.1.8" type="github">
  <diagram id="of5FL6oC3l2ca4Km0FGK" name="Page-1">
    <mxGraphModel dx="936" dy="752" grid="1" gridSize="10" guides="1" tooltips="1" connect="1" arrows="1" fold="1" page="1" pageScale="1" pageWidth="1100" pageHeight="850" math="0" shadow="0">
      <root>
        <mxCell id="ncaLWaEdY-OBginMreWx-0" />
        <mxCell id="ncaLWaEdY-OBginMreWx-1" parent="ncaLWaEdY-OBginMreWx-0" />
      </root>
    </mxGraphModel>
  </diagram>
</mxfile>
